nColumns=28
nRows=73
DataType=double
version=3
OpenSimVersion=4.1
endheader
time	ground_force_1_vx	ground_force_1_vy	ground_force_1_vz	ground_force_1_px	ground_force_1_py	ground_force_1_pz	ground_force_1_mx	ground_force_1_my	ground_force_1_mz	ground_force_2_vx	ground_force_2_vy	ground_force_2_vz	ground_force_2_px	ground_force_2_py	ground_force_2_pz	ground_force_2_mx	ground_force_2_my	ground_force_2_mz	ground_force_3_vx	ground_force_3_vy	ground_force_3_vz	ground_force_3_px	ground_force_3_py	ground_force_3_pz	ground_force_3_mx	ground_force_3_my	ground_force_3_mz
6.4	-0.767937	308.638	-41.1014	-0.168478	0.006	-0.364819	0	-2.55471	0	-17.6815	335.266	45.7944	-0.130568	0.006	-0.779913	0	3.2114	0	0	0	0	0	0	0	0	0	0
6.41	-0.982442	305.808	-40.6221	-0.167754	0.006	-0.364794	0	-2.5322	0	-17.9526	333.784	45.4229	-0.129834	0.006	-0.779735	0	3.17154	0	0	0	0	0	0	0	0	0	0
6.42	-1.15317	303.028	-40.1601	-0.167165	0.006	-0.364797	0	-2.51567	0	-18.1565	332.384	45.0778	-0.129241	0.006	-0.779554	0	3.14305	0	0	0	0	0	0	0	0	0	0
6.43	-1.2748	300.298	-39.7094	-0.166713	0.006	-0.364826	0	-2.50495	0	-18.2924	331.046	44.7594	-0.128788	0.006	-0.779373	0	3.12607	0	0	0	0	0	0	0	0	0	0
6.44	-1.34273	297.621	-39.2646	-0.166399	0.006	-0.364881	0	-2.49972	0	-18.3589	329.755	44.4663	-0.128473	0.006	-0.779195	0	3.12065	0	0	0	0	0	0	0	0	0	0
6.45	-1.35379	295.003	-38.8225	-0.166221	0.006	-0.364961	0	-2.49957	0	-18.3532	328.491	44.1956	-0.128292	0.006	-0.779019	0	3.1267	0	0	0	0	0	0	0	0	0	0
6.46	-1.30657	292.459	-38.3813	-0.166172	0.006	-0.365066	0	-2.50395	0	-18.2729	327.233	43.944	-0.12824	0.006	-0.778848	0	3.14391	0	0	0	0	0	0	0	0	0	0
6.47	-1.20264	290.008	-37.9413	-0.166244	0.006	-0.365195	0	-2.51213	0	-18.1169	325.961	43.707	-0.128307	0.006	-0.778681	0	3.17171	0	0	0	0	0	0	0	0	0	0
6.48	-1.04801	287.668	-37.5047	-0.166424	0.006	-0.365347	0	-2.52325	0	-17.8861	324.658	43.4795	-0.128484	0.006	-0.778517	0	3.20937	0	0	0	0	0	0	0	0	0	0
6.49	-0.853473	285.456	-37.0749	-0.166695	0.006	-0.365517	0	-2.53625	0	-17.583	323.318	43.2566	-0.128757	0.006	-0.778357	0	3.25574	0	0	0	0	0	0	0	0	0	0
6.5	-0.633452	283.384	-36.6558	-0.167034	0.006	-0.365704	0	-2.55002	0	-17.2114	321.944	43.0349	-0.129115	0.006	-0.778198	0	3.30931	0	0	0	0	0	0	0	0	0	0
6.51	-0.403214	281.461	-36.2511	-0.16742	0.006	-0.365903	0	-2.56338	0	-16.7773	320.545	42.8116	-0.129544	0.006	-0.778041	0	3.36826	0	0	0	0	0	0	0	0	0	0
6.52	-0.175862	279.698	-35.864	-0.167832	0.006	-0.366114	0	-2.5752	0	-16.2881	319.137	42.5847	-0.130035	0.006	-0.777885	0	3.43048	0	0	0	0	0	0	0	0	0	0
6.53	0.0379637	278.108	-35.4972	-0.168251	0.006	-0.366331	0	-2.58445	0	-15.7526	317.74	42.3531	-0.130577	0.006	-0.777729	0	3.4939	0	0	0	0	0	0	0	0	0	0
6.54	0.228949	276.701	-35.1534	-0.168661	0.006	-0.366553	0	-2.59035	0	-15.1797	316.371	42.1165	-0.13116	0.006	-0.777572	0	3.55665	0	0	0	0	0	0	0	0	0	0
6.55	0.388454	275.49	-34.8353	-0.169049	0.006	-0.366775	0	-2.59239	0	-14.5797	315.047	41.8749	-0.131776	0.006	-0.777412	0	3.61723	0	0	0	0	0	0	0	0	0	0
6.56	0.508985	274.489	-34.547	-0.169404	0.006	-0.366994	0	-2.59048	0	-13.9635	313.787	41.6291	-0.132415	0.006	-0.777248	0	3.6745	0	0	0	0	0	0	0	0	0	0
6.57	0.585692	273.711	-34.294	-0.169723	0.006	-0.367207	0	-2.58487	0	-13.3417	312.614	41.3811	-0.133072	0.006	-0.777079	0	3.72763	0	0	0	0	0	0	0	0	0	0
6.58	0.617327	273.176	-34.0833	-0.170009	0.006	-0.367411	0	-2.57614	0	-12.7231	311.559	41.1349	-0.133742	0.006	-0.776904	0	3.77619	0	0	0	0	0	0	0	0	0	0
6.59	0.605708	272.908	-33.9239	-0.170266	0.006	-0.367603	0	-2.5652	0	-12.1148	310.656	40.8977	-0.134422	0.006	-0.776723	0	3.82002	0	0	0	0	0	0	0	0	0	0
6.6	0.554661	272.928	-33.8259	-0.170503	0.006	-0.367779	0	-2.55317	0	-11.5235	309.942	40.679	-0.135107	0.006	-0.77654	0	3.85927	0	0	0	0	0	0	0	0	0	0
6.61	0.469825	273.258	-33.7983	-0.17073	0.006	-0.367938	0	-2.54132	0	-10.9563	309.447	40.4892	-0.135794	0.006	-0.776357	0	3.89437	0	0	0	0	0	0	0	0	0	0
6.62	0.35905	273.919	-33.849	-0.170958	0.006	-0.368078	0	-2.53091	0	-10.4202	309.198	40.3381	-0.136482	0.006	-0.776178	0	3.92599	0	0	0	0	0	0	0	0	0	0
6.63	0.233207	274.932	-33.9846	-0.171197	0.006	-0.368198	0	-2.52309	0	-9.921	309.214	40.2341	-0.137169	0.006	-0.776006	0	3.95465	0	0	0	0	0	0	0	0	0	0
6.64	0.106158	276.318	-34.2108	-0.171459	0.006	-0.368296	0	-2.51895	0	-9.46249	309.509	40.1847	-0.137855	0.006	-0.775846	0	3.98063	0	0	0	0	0	0	0	0	0	0
6.65	-0.00717499	278.099	-34.5326	-0.171754	0.006	-0.36837	0	-2.51943	0	-9.04647	310.089	40.1968	-0.13854	0.006	-0.7757	0	4.00393	0	0	0	0	0	0	0	0	0	0
6.66	-0.0924672	280.295	-34.9556	-0.172091	0.006	-0.368422	0	-2.52526	0	-8.67259	310.963	40.2765	-0.139221	0.006	-0.775573	0	4.02435	0	0	0	0	0	0	0	0	0	0
6.67	-0.13644	282.928	-35.4859	-0.172477	0.006	-0.368448	0	-2.53687	0	-8.33842	312.136	40.4297	-0.139902	0.006	-0.775469	0	4.0418	0	0	0	0	0	0	0	0	0	0
6.68	-0.12716	286.018	-36.1295	-0.172919	0.006	-0.368447	0	-2.55443	0	-8.04011	313.615	40.6616	-0.140582	0.006	-0.775391	0	4.05638	0	0	0	0	0	0	0	0	0	0
6.69	-0.0546025	289.586	-36.8922	-0.173417	0.006	-0.368421	0	-2.57789	0	-7.77302	315.405	40.977	-0.141265	0.006	-0.77534	0	4.06843	0	0	0	0	0	0	0	0	0	0
6.7	0.088725	293.651	-37.7788	-0.173974	0.006	-0.368368	0	-2.60706	0	-7.53212	317.509	41.3795	-0.141953	0.006	-0.775318	0	4.07836	0	0	0	0	0	0	0	0	0	0
6.71	0.307543	298.225	-38.7925	-0.174587	0.006	-0.368291	0	-2.64162	0	-7.31248	319.93	41.8717	-0.142649	0.006	-0.775323	0	4.08664	0	0	0	0	0	0	0	0	0	0
6.72	0.603582	303.315	-39.9358	-0.175252	0.006	-0.36819	0	-2.68088	0	-7.11005	322.664	42.4553	-0.143356	0.006	-0.775355	0	4.09363	0	0	0	0	0	0	0	0	0	0
6.73	0.976103	308.914	-41.2099	-0.175964	0.006	-0.368068	0	-2.72392	0	-6.92136	325.705	43.1307	-0.144076	0.006	-0.775411	0	4.09964	0	0	0	0	0	0	0	0	0	0
6.74	1.42208	314.999	-42.6131	-0.176715	0.006	-0.367926	0	-2.76961	0	-6.7429	329.036	43.8957	-0.144809	0.006	-0.775488	0	4.10494	0	0	0	0	0	0	0	0	0	0
6.75	1.93648	321.525	-44.1395	-0.177493	0.006	-0.367766	0	-2.81671	0	-6.57097	332.631	44.7452	-0.145555	0.006	-0.775583	0	4.10961	0	0	0	0	0	0	0	0	0	0
6.76	2.51312	328.422	-45.7767	-0.17829	0.006	-0.367593	0	-2.864	0	-6.40239	336.445	45.6702	-0.146314	0.006	-0.775692	0	4.11341	0	0	0	0	0	0	0	0	0	0
6.77	3.146	335.605	-47.5066	-0.179095	0.006	-0.367413	0	-2.91026	0	-6.2354	340.42	46.6576	-0.147081	0.006	-0.775808	0	4.11567	0	0	0	0	0	0	0	0	0	0
6.78	3.82968	342.969	-49.3065	-0.1799	0.006	-0.367229	0	-2.95419	0	-6.06947	344.478	47.6904	-0.147851	0.006	-0.775927	0	4.11545	0	0	0	0	0	0	0	0	0	0
6.79	4.55866	350.399	-51.152	-0.180697	0.006	-0.367046	0	-2.99447	0	-5.90406	348.536	48.7494	-0.14862	0.006	-0.77604	0	4.11166	0	0	0	0	0	0	0	0	0	0
6.8	5.32726	357.776	-53.0193	-0.181479	0.006	-0.36687	0	-3.02976	0	-5.73773	352.507	49.8144	-0.149382	0.006	-0.776142	0	4.10317	0	0	0	0	0	0	0	0	0	0
6.81	6.1296	364.991	-54.8869	-0.182239	0.006	-0.366703	0	-3.05877	0	-5.56752	356.314	50.8662	-0.150133	0.006	-0.776229	0	4.08905	0	0	0	0	0	0	0	0	0	0
6.82	6.95887	371.945	-56.7347	-0.182973	0.006	-0.366549	0	-3.08031	0	-5.38887	359.893	51.8889	-0.150872	0.006	-0.776296	0	4.0686	0	0	0	0	0	0	0	0	0	0
6.83	7.80605	378.556	-58.5444	-0.183681	0.006	-0.366411	0	-3.09337	0	-5.19629	363.203	52.8712	-0.151599	0.006	-0.776342	0	4.04131	0	0	0	0	0	0	0	0	0	0
6.84	8.6589	384.757	-60.2986	-0.184361	0.006	-0.366292	0	-3.09724	0	-4.98423	366.219	53.8074	-0.152315	0.006	-0.776365	0	4.00681	0	0	0	0	0	0	0	0	0	0
6.85	9.50086	390.487	-61.9798	-0.185013	0.006	-0.366195	0	-3.09148	0	-4.74757	368.934	54.6954	-0.153025	0.006	-0.776367	0	3.96467	0	0	0	0	0	0	0	0	0	0
6.86	10.3119	395.694	-63.5709	-0.185638	0.006	-0.366121	0	-3.07597	0	-4.48103	371.351	55.5366	-0.153732	0.006	-0.77635	0	3.91455	0	0	0	0	0	0	0	0	0	0
6.87	11.0717	400.336	-65.0561	-0.186237	0.006	-0.366072	0	-3.05078	0	-4.17854	373.481	56.3332	-0.154443	0.006	-0.776315	0	3.85635	0	0	0	0	0	0	0	0	0	0
6.88	11.7629	404.387	-66.4208	-0.186811	0.006	-0.366049	0	-3.01625	0	-3.83413	375.335	57.0872	-0.155164	0.006	-0.776264	0	3.79008	0	0	0	0	0	0	0	0	0	0
6.89	12.3726	407.837	-67.6531	-0.187363	0.006	-0.366053	0	-2.97284	0	-3.44329	376.92	57.7984	-0.155902	0.006	-0.776199	0	3.71602	0	0	0	0	0	0	0	0	0	0
6.9	12.8922	410.686	-68.7446	-0.187897	0.006	-0.366084	0	-2.92102	0	-3.00367	378.238	58.4637	-0.156659	0.006	-0.776119	0	3.63475	0	0	0	0	0	0	0	0	0	0
6.91	13.3155	412.941	-69.6905	-0.188414	0.006	-0.366142	0	-2.86117	0	-2.51568	379.288	59.0781	-0.157439	0.006	-0.776026	0	3.54699	0	0	0	0	0	0	0	0	0	0
6.92	13.6378	414.608	-70.4883	-0.188914	0.006	-0.366223	0	-2.79363	0	-1.98247	380.065	59.637	-0.158242	0.006	-0.775918	0	3.45357	0	0	0	0	0	0	0	0	0	0
6.93	13.8535	415.686	-71.1374	-0.189397	0.006	-0.366323	0	-2.71881	0	-1.41006	380.56	60.1366	-0.159068	0.006	-0.775799	0	3.35528	0	0	0	0	0	0	0	0	0	0
6.94	13.9555	416.166	-71.6379	-0.189859	0.006	-0.366438	0	-2.63724	0	-0.807176	380.765	60.5747	-0.159914	0.006	-0.775667	0	3.25291	0	0	0	0	0	0	0	0	0	0
6.95	13.9359	416.033	-71.9912	-0.190297	0.006	-0.366563	0	-2.54964	0	-0.186021	380.666	60.95	-0.160776	0.006	-0.775525	0	3.14727	0	0	0	0	0	0	0	0	0	0
6.96	13.7865	415.269	-72.1999	-0.190705	0.006	-0.366693	0	-2.457	0	0.436711	380.246	61.2618	-0.161648	0.006	-0.775373	0	3.03929	0	0	0	0	0	0	0	0	0	0
6.97	13.5006	413.856	-72.2675	-0.191081	0.006	-0.366823	0	-2.36073	0	1.03972	379.485	61.5087	-0.162524	0.006	-0.775214	0	2.92991	0	0	0	0	0	0	0	0	0	0
6.98	13.0754	411.775	-72.1977	-0.191426	0.006	-0.366949	0	-2.26252	0	1.59841	378.353	61.6884	-0.163395	0.006	-0.775049	0	2.82016	0	0	0	0	0	0	0	0	0	0
6.99	12.5142	409.009	-71.9933	-0.19174	0.006	-0.367072	0	-2.16425	0	2.0868	376.819	61.7977	-0.164255	0.006	-0.774878	0	2.71109	0	0	0	0	0	0	0	0	0	0
7	11.8273	405.537	-71.6556	-0.19203	0.006	-0.367189	0	-2.06778	0	2.48089	374.849	61.8339	-0.165096	0.006	-0.774702	0	2.60378	0	0	0	0	0	0	0	0	0	0
7.01	11.0289	401.336	-71.1845	-0.192301	0.006	-0.367302	0	-1.97486	0	2.7614	372.407	61.7939	-0.165914	0.006	-0.774523	0	2.49925	0	0	0	0	0	0	0	0	0	0
7.02	10.1338	396.379	-70.5776	-0.192557	0.006	-0.367413	0	-1.8869	0	2.91498	369.454	61.6732	-0.166705	0.006	-0.774341	0	2.39814	0	0	0	0	0	0	0	0	0	0
7.03	9.15516	390.635	-69.8301	-0.192801	0.006	-0.367522	0	-1.80488	0	2.93381	365.948	61.4648	-0.167466	0.006	-0.774157	0	2.3007	0	0	0	0	0	0	0	0	0	0
7.04	8.10358	384.069	-68.9348	-0.193031	0.006	-0.367631	0	-1.72925	0	2.81434	361.839	61.1588	-0.168194	0.006	-0.77397	0	2.20684	0	0	0	0	0	0	0	0	0	0
7.05	6.99013	376.648	-67.8821	-0.193244	0.006	-0.367741	0	-1.65992	0	2.55661	357.074	60.7434	-0.168885	0.006	-0.77378	0	2.11599	0	0	0	0	0	0	0	0	0	0
7.06	5.82995	368.344	-66.6604	-0.193435	0.006	-0.367854	0	-1.5961	0	2.16511	351.602	60.2058	-0.169532	0.006	-0.773584	0	2.0271	0	0	0	0	0	0	0	0	0	0
7.07	4.64436	359.144	-65.2573	-0.193599	0.006	-0.36797	0	-1.53649	0	1.65086	345.381	59.5338	-0.170126	0.006	-0.773379	0	1.93863	0	0	0	0	0	0	0	0	0	0
7.08	3.46026	349.046	-63.6611	-0.193729	0.006	-0.368092	0	-1.47934	0	1.03276	338.383	58.7158	-0.170659	0.006	-0.77316	0	1.8489	0	0	0	0	0	0	0	0	0	0
7.09	2.30664	338.063	-61.8614	-0.193815	0.006	-0.368222	0	-1.42274	0	0.336237	330.601	57.7421	-0.171125	0.006	-0.77292	0	1.75618	0	0	0	0	0	0	0	0	0	0
7.1	1.21143	326.227	-59.8508	-0.193849	0.006	-0.368361	0	-1.36478	0	-0.408653	322.05	56.6057	-0.171512	0.006	-0.772652	0	1.65879	0	0	0	0	0	0	0	0	0	0
7.11	0.201011	313.6	-57.6266	-0.193817	0.006	-0.368511	0	-1.30395	0	-1.16954	312.772	55.3017	-0.17181	0.006	-0.772349	0	1.55537	0	0	0	0	0	0	0	0	0	0
7.12	-0.700631	300.276	-55.1925	-0.193709	0.006	-0.368677	0	-1.23933	0	-1.91412	302.832	53.8286	-0.172009	0.006	-0.772005	0	1.44507	0	0	0	0	0	0	0	0	0	0
